<?xml version="1.0" encoding="utf-8"?>
<!-- Generator: Adobe Illustrator 23.0.0, SVG Export Plug-In . SVG Version: 6.00 Build 0)  -->
<svg version="1.1" id="Layer_1" xmlns="http://www.w3.org/2000/svg" xmlns:xlink="http://www.w3.org/1999/xlink" x="0px" y="0px"
	 viewBox="0 0 200 100" style="enable-background:new 0 0 200 100;" xml:space="preserve">
<style type="text/css">
	.st0{fill:#DDDDDD;}
	.st1{fill:#D8D8D8;}
	.st2{clip-path:url(#SVGID_2_);fill:#DDDDDD;}
</style>
<g>
	<path class="st0" d="M52.9,26.03v20.99c0,2.17-0.41,4.2-1.24,6.12c-0.83,1.91-1.95,3.57-3.37,4.99c-1.42,1.42-3.09,2.54-5.02,3.36
		c-1.93,0.83-3.98,1.24-6.15,1.24s-4.21-0.41-6.12-1.24c-1.91-0.83-3.58-1.95-4.99-3.36c-1.42-1.41-2.54-3.08-3.37-4.99
		c-0.83-1.91-1.24-3.95-1.24-6.12s0.41-4.21,1.24-6.14c0.83-1.93,1.95-3.6,3.37-5.01c1.42-1.41,3.08-2.53,4.99-3.36
		c1.91-0.83,3.95-1.24,6.12-1.24c1.57,0,3.05,0.21,4.45,0.63c1.4,0.42,2.72,1.02,3.95,1.81v-7.67H52.9z M37.13,55.36
		c1.17,0,2.27-0.22,3.28-0.65c1.01-0.44,1.9-1.03,2.67-1.78c0.77-0.75,1.37-1.64,1.81-2.66c0.44-1.02,0.66-2.11,0.66-3.25
		c0-1.17-0.22-2.26-0.66-3.27c-0.44-1.01-1.04-1.9-1.81-2.66c-0.77-0.77-1.66-1.37-2.67-1.81c-1.01-0.44-2.1-0.65-3.28-0.65
		c-1.15,0-2.23,0.22-3.25,0.65c-1.02,0.44-1.91,1.04-2.67,1.81c-0.75,0.77-1.35,1.66-1.78,2.66c-0.44,1.01-0.66,2.1-0.66,3.27
		c0,1.14,0.22,2.23,0.66,3.25c0.44,1.02,1.03,1.91,1.78,2.66c0.75,0.75,1.64,1.35,2.67,1.78C34.9,55.15,35.98,55.36,37.13,55.36z"/>
	<path class="st0" d="M59.4,31.31v-7.36h7.37v7.36H59.4z M59.4,62.77v-29.2h7.37v29.2H59.4z"/>
	<path class="st0" d="M92.12,55.45v7.36h-4.2v0.04c-2.05,0-3.97-0.38-5.76-1.15c-1.79-0.77-3.36-1.82-4.7-3.16
		c-1.34-1.34-2.4-2.9-3.16-4.69s-1.15-3.71-1.15-5.76V29.14h-4.2l3.16-5.28h5.24L77.3,23.9h3.21v11.42V48.1
		c0,1.02,0.2,1.98,0.59,2.87c0.39,0.89,0.93,1.67,1.6,2.35c0.68,0.68,1.46,1.21,2.35,1.6c0.89,0.39,1.84,0.59,2.87,0.59v-0.05H92.12
		z"/>
	<path class="st0" d="M93.65,31.31v-7.36h7.37v7.36H93.65z M93.65,62.77v-29.2h7.37v29.2H93.65z"/>
	<path class="st0" d="M138.89,26.03v20.99c0,2.17-0.42,4.2-1.24,6.12c-0.83,1.91-1.95,3.57-3.37,4.99
		c-1.42,1.42-3.09,2.54-5.02,3.36c-1.93,0.83-3.98,1.24-6.15,1.24s-4.21-0.41-6.12-1.24c-1.91-0.83-3.58-1.95-4.99-3.36
		c-1.42-1.41-2.54-3.08-3.37-4.99s-1.24-3.95-1.24-6.12s0.41-4.21,1.24-6.14c0.83-1.93,1.95-3.6,3.37-5.01
		c1.42-1.41,3.08-2.53,4.99-3.36c1.91-0.83,3.95-1.24,6.12-1.24c1.57,0,3.05,0.21,4.45,0.63c1.4,0.42,2.72,1.02,3.95,1.81v-7.67
		H138.89z M123.12,55.36c1.17,0,2.27-0.22,3.28-0.65c1.01-0.44,1.9-1.03,2.67-1.78c0.77-0.75,1.37-1.64,1.81-2.66
		c0.44-1.02,0.66-2.11,0.66-3.25c0-1.17-0.22-2.26-0.66-3.27c-0.44-1.01-1.04-1.9-1.81-2.66c-0.77-0.77-1.66-1.37-2.67-1.81
		c-1.01-0.44-2.1-0.65-3.28-0.65c-1.14,0-2.23,0.22-3.25,0.65c-1.02,0.44-1.91,1.04-2.67,1.81c-0.75,0.77-1.35,1.66-1.79,2.66
		c-0.44,1.01-0.66,2.1-0.66,3.27c0,1.14,0.22,2.23,0.66,3.25c0.44,1.02,1.03,1.91,1.79,2.66c0.75,0.75,1.64,1.35,2.67,1.78
		C120.89,55.15,121.97,55.36,123.12,55.36z"/>
	<path class="st0" d="M174.85,50.08c-0.36,1.81-1.02,3.48-1.97,5.03c-0.95,1.55-2.1,2.89-3.46,4.02c-1.36,1.13-2.89,2.01-4.61,2.64
		c-1.72,0.63-3.54,0.95-5.47,0.95c-2.2,0-4.26-0.41-6.17-1.24c-1.91-0.83-3.59-1.96-5.02-3.39c-1.43-1.43-2.56-3.1-3.39-5.01
		s-1.24-3.96-1.24-6.16c0-2.2,0.41-4.25,1.24-6.16c0.83-1.91,1.96-3.58,3.39-5.01c1.43-1.43,3.1-2.56,5.02-3.39
		c1.91-0.83,3.97-1.24,6.17-1.24c1.63,0,3.18,0.23,4.65,0.7c1.48,0.47,2.84,1.12,4.09,1.96c1.25,0.84,2.36,1.84,3.34,3
		c0.98,1.16,1.77,2.43,2.37,3.81c0.15,0.33,0.27,0.63,0.36,0.9l-0.72,1.22l-2.62,4.2h-9.8l3.89-6.27c-0.75-0.69-1.6-1.23-2.55-1.6
		c-0.95-0.38-1.95-0.56-3-0.56c-1.17,0-2.28,0.22-3.3,0.65c-1.02,0.44-1.92,1.04-2.69,1.81c-0.77,0.77-1.37,1.66-1.81,2.69
		s-0.66,2.12-0.66,3.29c0,1.17,0.22,2.27,0.66,3.29c0.44,1.02,1.04,1.92,1.81,2.69c0.77,0.77,1.66,1.37,2.69,1.81
		c1.02,0.44,2.12,0.65,3.3,0.65c1.78,0,3.37-0.5,4.77-1.49c1.4-0.99,2.42-2.26,3.05-3.79H174.85z"/>
</g>
<g>
	<ellipse class="st1" cx="71.89" cy="61.25" rx="1.48" ry="1.51"/>
</g>
<g>
	<ellipse class="st1" cx="107.33" cy="61.25" rx="1.48" ry="1.51"/>
</g>
<g>
	<g>
		<defs>
			<rect id="SVGID_1_" x="93.58" y="23.61" width="7.48" height="7.94"/>
		</defs>
		<use xlink:href="#SVGID_1_"  style="overflow:visible;fill:#DDDDDD;"/>
		<clipPath id="SVGID_2_">
			<use xlink:href="#SVGID_1_"  style="overflow:visible;"/>
		</clipPath>
		<rect x="93.58" y="23.61" class="st2" width="7.48" height="7.94"/>
		<ellipse class="st2" cx="97.32" cy="27.58" rx="3.74" ry="3.97"/>
		<ellipse class="st2" cx="97.32" cy="27.58" rx="3.7" ry="3.92"/>
		<ellipse class="st2" cx="97.32" cy="27.58" rx="3.66" ry="3.88"/>
		<ellipse class="st2" cx="97.32" cy="27.58" rx="3.62" ry="3.83"/>
		<ellipse class="st2" cx="97.32" cy="27.58" rx="3.57" ry="3.79"/>
		<ellipse class="st2" cx="97.32" cy="27.58" rx="3.53" ry="3.75"/>
		<ellipse class="st2" cx="97.32" cy="27.58" rx="3.49" ry="3.7"/>
		<ellipse class="st2" cx="97.32" cy="27.58" rx="3.45" ry="3.66"/>
		<ellipse class="st2" cx="97.32" cy="27.58" rx="3.41" ry="3.61"/>
		<ellipse class="st2" cx="97.32" cy="27.58" rx="3.36" ry="3.57"/>
		<ellipse class="st2" cx="97.32" cy="27.58" rx="3.32" ry="3.52"/>
		<ellipse class="st2" cx="97.32" cy="27.58" rx="3.28" ry="3.48"/>
		<ellipse class="st2" cx="97.32" cy="27.58" rx="3.24" ry="3.43"/>
		<ellipse class="st2" cx="97.32" cy="27.58" rx="3.19" ry="3.39"/>
		<ellipse class="st2" cx="97.32" cy="27.58" rx="3.15" ry="3.34"/>
		<ellipse class="st2" cx="97.32" cy="27.58" rx="3.11" ry="3.3"/>
		<ellipse class="st2" cx="97.32" cy="27.58" rx="3.07" ry="3.25"/>
		<ellipse class="st2" cx="97.32" cy="27.58" rx="3.03" ry="3.21"/>
		<ellipse class="st2" cx="97.32" cy="27.58" rx="2.98" ry="3.17"/>
		<ellipse class="st2" cx="97.32" cy="27.58" rx="2.94" ry="3.12"/>
		<ellipse class="st2" cx="97.32" cy="27.58" rx="2.9" ry="3.08"/>
		<ellipse class="st2" cx="97.32" cy="27.58" rx="2.86" ry="3.03"/>
		<ellipse class="st2" cx="97.32" cy="27.58" rx="2.82" ry="2.99"/>
		<ellipse class="st2" cx="97.32" cy="27.58" rx="2.77" ry="2.94"/>
		<ellipse class="st2" cx="97.32" cy="27.58" rx="2.73" ry="2.9"/>
		<ellipse class="st2" cx="97.32" cy="27.58" rx="2.69" ry="2.85"/>
		<ellipse class="st2" cx="97.32" cy="27.58" rx="2.65" ry="2.81"/>
		<ellipse class="st2" cx="97.32" cy="27.58" rx="2.61" ry="2.76"/>
		<ellipse class="st2" cx="97.32" cy="27.58" rx="2.56" ry="2.72"/>
		<ellipse class="st2" cx="97.32" cy="27.58" rx="2.52" ry="2.68"/>
		<ellipse class="st2" cx="97.32" cy="27.58" rx="2.48" ry="2.63"/>
		<ellipse class="st2" cx="97.32" cy="27.58" rx="2.44" ry="2.59"/>
		<ellipse class="st2" cx="97.32" cy="27.58" rx="2.4" ry="2.54"/>
		<ellipse class="st2" cx="97.32" cy="27.58" rx="2.35" ry="2.5"/>
		<ellipse class="st2" cx="97.32" cy="27.58" rx="2.31" ry="2.45"/>
		<ellipse class="st2" cx="97.32" cy="27.58" rx="2.27" ry="2.41"/>
		<ellipse class="st2" cx="97.32" cy="27.58" rx="2.23" ry="2.36"/>
		<ellipse class="st2" cx="97.32" cy="27.58" rx="2.19" ry="2.32"/>
		<ellipse class="st2" cx="97.32" cy="27.58" rx="2.14" ry="2.27"/>
		<ellipse class="st2" cx="97.32" cy="27.58" rx="2.1" ry="2.23"/>
		<ellipse class="st2" cx="97.32" cy="27.58" rx="2.06" ry="2.18"/>
		<ellipse class="st2" cx="97.32" cy="27.58" rx="2.02" ry="2.14"/>
		<ellipse class="st2" cx="97.32" cy="27.58" rx="1.98" ry="2.1"/>
		<ellipse class="st2" cx="97.32" cy="27.58" rx="1.93" ry="2.05"/>
		<ellipse class="st2" cx="97.32" cy="27.58" rx="1.89" ry="2.01"/>
		<ellipse class="st2" cx="97.32" cy="27.58" rx="1.85" ry="1.96"/>
		<ellipse class="st2" cx="97.32" cy="27.58" rx="1.81" ry="1.92"/>
		<ellipse class="st2" cx="97.32" cy="27.58" rx="1.77" ry="1.87"/>
		<ellipse class="st2" cx="97.32" cy="27.58" rx="1.72" ry="1.83"/>
		<ellipse class="st2" cx="97.32" cy="27.58" rx="1.68" ry="1.78"/>
		<ellipse class="st2" cx="97.32" cy="27.58" rx="1.64" ry="1.74"/>
		<ellipse class="st2" cx="97.32" cy="27.58" rx="1.6" ry="1.69"/>
		<ellipse class="st2" cx="97.32" cy="27.58" rx="1.56" ry="1.65"/>
		<ellipse class="st2" cx="97.32" cy="27.58" rx="1.51" ry="1.61"/>
		<ellipse class="st2" cx="97.32" cy="27.58" rx="1.47" ry="1.56"/>
		<ellipse class="st2" cx="97.32" cy="27.58" rx="1.43" ry="1.52"/>
		<ellipse class="st2" cx="97.32" cy="27.58" rx="1.39" ry="1.47"/>
		<ellipse class="st2" cx="97.32" cy="27.58" rx="1.35" ry="1.43"/>
		<ellipse class="st2" cx="97.32" cy="27.58" rx="1.3" ry="1.38"/>
		<ellipse class="st2" cx="97.32" cy="27.58" rx="1.26" ry="1.34"/>
		<ellipse class="st2" cx="97.32" cy="27.58" rx="1.22" ry="1.29"/>
		<ellipse class="st2" cx="97.32" cy="27.58" rx="1.18" ry="1.25"/>
		<ellipse class="st2" cx="97.32" cy="27.58" rx="1.14" ry="1.2"/>
		<ellipse class="st2" cx="97.32" cy="27.58" rx="1.09" ry="1.16"/>
		<ellipse class="st2" cx="97.32" cy="27.58" rx="1.05" ry="1.11"/>
		<ellipse class="st2" cx="97.32" cy="27.58" rx="1.01" ry="1.07"/>
		<ellipse class="st2" cx="97.32" cy="27.58" rx="0.97" ry="1.03"/>
		<ellipse class="st2" cx="97.32" cy="27.58" rx="0.92" ry="0.98"/>
		<ellipse class="st2" cx="97.32" cy="27.58" rx="0.88" ry="0.94"/>
		<ellipse class="st2" cx="97.32" cy="27.58" rx="0.84" ry="0.89"/>
		<ellipse class="st2" cx="97.32" cy="27.58" rx="0.8" ry="0.85"/>
		<ellipse class="st2" cx="97.32" cy="27.58" rx="0.76" ry="0.8"/>
		<ellipse class="st2" cx="97.32" cy="27.58" rx="0.71" ry="0.76"/>
		<ellipse class="st2" cx="97.32" cy="27.58" rx="0.67" ry="0.71"/>
		<ellipse class="st2" cx="97.32" cy="27.58" rx="0.63" ry="0.67"/>
		<ellipse class="st2" cx="97.32" cy="27.58" rx="0.59" ry="0.62"/>
		<ellipse class="st2" cx="97.32" cy="27.58" rx="0.55" ry="0.58"/>
		<ellipse class="st2" cx="97.32" cy="27.58" rx="0.5" ry="0.54"/>
		<ellipse class="st2" cx="97.32" cy="27.58" rx="0.46" ry="0.49"/>
		<ellipse class="st2" cx="97.32" cy="27.58" rx="0.42" ry="0.45"/>
		<ellipse class="st2" cx="97.32" cy="27.58" rx="0.38" ry="0.4"/>
		<ellipse class="st2" cx="97.32" cy="27.58" rx="0.34" ry="0.36"/>
		<ellipse class="st2" cx="97.32" cy="27.58" rx="0.29" ry="0.31"/>
		<ellipse class="st2" cx="97.32" cy="27.58" rx="0.25" ry="0.27"/>
		<ellipse class="st2" cx="97.32" cy="27.58" rx="0.21" ry="0.22"/>
		<ellipse class="st2" cx="97.32" cy="27.58" rx="0.17" ry="0.18"/>
		<ellipse class="st2" cx="97.32" cy="27.58" rx="0.13" ry="0.13"/>
		<ellipse class="st2" cx="97.32" cy="27.58" rx="0.08" ry="0.09"/>
		<ellipse class="st2" cx="97.32" cy="27.58" rx="0.04" ry="0.04"/>
	</g>
</g>
</svg>
