<?xml version="1.0" standalone="no"?>
<!DOCTYPE svg PUBLIC "-//W3C//DTD SVG 20010904//EN"
 "http://www.w3.org/TR/2001/REC-SVG-20010904/DTD/svg10.dtd">
<svg version="1.0" xmlns="http://www.w3.org/2000/svg"
 width="1080.000000pt" height="1080.000000pt" viewBox="0 0 1080.000000 1080.000000"
 preserveAspectRatio="xMidYMid meet">

<g transform="translate(0.000000,1080.000000) scale(0.100000,-0.100000)"
fill="#000000" stroke="none">
<path d="M5575 6761 c123 -32 227 -129 301 -278 31 -64 33 -65 31 -31 -1 20
-6 33 -11 30 -5 -3 -6 9 -3 28 6 27 5 30 -7 21 -11 -9 -15 -8 -20 5 -8 22 -8
24 7 19 9 -4 11 15 9 80 -3 65 0 85 10 86 7 1 -3 5 -22 9 -34 7 -34 7 15 10
l50 3 -60 7 c-88 11 -335 20 -300 11z"/>
<path d="M3485 6733 c-50 -11 -150 -71 -181 -107 -111 -129 -119 -385 -25
-768 68 -274 220 -674 299 -785 24 -34 130 -89 202 -104 98 -21 247 17 385 99
44 27 94 54 110 61 49 22 180 25 274 7 47 -8 86 -14 88 -12 3 2 -15 11 -39 20
l-43 16 41 -4 c26 -2 41 0 41 8 0 7 -16 10 -41 9 l-41 -3 35 13 35 14 5 164
c3 90 7 144 9 119 4 -41 5 -42 8 -12 3 19 -3 49 -13 70 -19 40 -9 69 22 64 15
-3 16 -1 5 12 -8 9 -23 16 -35 16 -12 0 -53 15 -92 34 -84 42 -135 56 -195 56
-71 0 -176 -37 -252 -89 -96 -65 -128 -81 -162 -81 -54 1 -91 33 -133 115 -20
40 -130 163 -274 308 -60 60 -72 76 -51 71 22 -6 24 -4 19 14 -12 37 14 666
27 674 13 8 4 8 -28 1z m1132 -1113 c15 0 23 -3 19 -7 -13 -13 -73 -9 -73 5 0
7 7 10 14 7 8 -3 26 -5 40 -5z m-110 -446 c-3 -3 -12 -4 -19 -1 -8 3 -5 6 6 6
11 1 17 -2 13 -5z"/>
<path d="M4955 6711 c-96 -46 -136 -107 -155 -235 -6 -43 -15 -212 -19 -375
-5 -202 -11 -303 -19 -318 -8 -15 -9 -23 -2 -23 5 0 13 18 16 40 4 22 10 43
14 45 5 3 6 -5 4 -17 -2 -13 -1 -16 2 -8 8 18 85 100 95 100 12 0 69 61 69 74
0 6 18 23 40 36 22 14 40 31 40 38 0 6 7 12 16 12 9 0 24 10 35 23 14 17 21
19 27 9 6 -9 16 25 29 95 20 103 20 109 3 133 -62 89 -92 188 -94 308 -1 108
-3 110 -101 63z"/>
<path d="M6630 6105 l0 -45 60 0 60 0 0 45 0 45 -60 0 -60 0 0 -45z"/>
<path d="M5926 6088 c27 -148 98 -368 157 -488 32 -65 32 -65 77 -68 54 -3 59
1 86 58 l21 45 24 -50 c24 -50 24 -50 77 -53 l53 -3 28 63 c69 154 134 357
156 486 l7 42 -55 0 -54 0 -18 -87 c-16 -79 -99 -351 -111 -363 -3 -2 -9 2
-15 10 -19 30 -88 258 -105 348 l-18 92 -54 0 -55 0 7 -52 c8 -59 26 -129 57
-226 l21 -67 -20 -50 c-11 -27 -24 -50 -28 -50 -14 0 -91 238 -112 345 l-19
95 -56 3 -57 3 6 -33z"/>
<path d="M6893 6008 c-23 -5 -56 -22 -72 -37 -27 -25 -31 -36 -31 -79 0 -44 4
-53 31 -77 18 -14 57 -39 89 -55 68 -34 82 -50 78 -87 -5 -41 -46 -61 -93 -44
-34 12 -38 11 -71 -14 -19 -15 -33 -32 -31 -38 5 -16 84 -46 122 -46 55 -1
109 21 147 59 34 34 38 43 38 88 0 63 -31 103 -112 146 -91 49 -108 74 -67 97
16 8 28 8 46 0 21 -10 29 -8 58 16 19 16 34 31 34 35 1 11 -50 35 -89 41 -19
2 -54 1 -77 -5z"/>
<path d="M7310 6011 c-114 -24 -184 -114 -184 -236 0 -76 15 -117 63 -168 86
-94 247 -99 335 -11 20 20 36 39 35 42 0 4 -16 20 -35 36 l-34 28 -21 -26
c-43 -55 -111 -71 -163 -37 -26 18 -66 67 -66 83 0 4 75 9 168 10 l167 3 -1
51 c-1 28 -7 68 -14 88 -14 44 -62 101 -99 120 -34 18 -107 26 -151 17z m117
-114 c12 -12 25 -34 28 -49 l7 -28 -111 0 c-61 0 -111 3 -111 6 0 4 9 21 20
39 40 65 120 80 167 32z"/>
<path d="M6632 5773 l3 -238 55 0 55 0 3 238 2 237 -60 0 -60 0 2 -237z"/>
<path d="M4679 5653 c-13 -16 -12 -17 4 -4 9 7 17 15 17 17 0 8 -8 3 -21 -13z"/>
<path d="M6911 5385 c1 -112 1 -115 23 -115 21 0 22 3 24 115 l1 115 -24 0
-25 0 1 -115z"/>
<path d="M7350 5475 c0 -8 9 -15 20 -15 11 0 20 7 20 15 0 8 -9 15 -20 15 -11
0 -20 -7 -20 -15z"/>
<path d="M6080 5465 c0 -9 9 -15 25 -15 25 0 25 -1 25 -90 0 -89 0 -90 25 -90
25 0 25 1 25 90 0 89 0 90 25 90 16 0 25 6 25 15 0 12 -15 15 -75 15 -60 0
-75 -3 -75 -15z"/>
<path d="M6235 5415 c-55 -54 -16 -145 62 -145 47 1 83 24 65 42 -10 10 -17
10 -32 0 -29 -18 -58 -15 -70 8 -10 18 -6 19 52 22 l63 3 -3 30 c-6 64 -90 88
-137 40z m85 -9 c0 -2 3 -11 6 -20 5 -13 -1 -16 -30 -16 -38 0 -44 8 -24 28
11 11 48 17 48 8z"/>
<path d="M6415 5415 c-54 -53 -16 -145 59 -145 46 0 66 9 59 26 -4 11 -14 13
-35 9 -21 -5 -35 -2 -49 11 -42 38 -7 102 50 89 24 -5 31 -3 31 8 0 35 -81 37
-115 2z"/>
<path d="M6550 5355 c0 -78 2 -85 20 -85 16 0 19 8 22 61 3 69 22 94 56 73 12
-8 18 -27 20 -73 3 -53 6 -61 22 -61 18 0 20 7 20 65 0 85 -19 105 -102 105
l-58 0 0 -85z"/>
<path d="M6746 5409 c-30 -35 -32 -58 -11 -98 16 -33 33 -41 81 -41 47 0 84
37 84 83 0 82 -101 119 -154 56z m96 -16 c23 -21 23 -55 -1 -77 -25 -23 -52
-17 -70 15 -13 24 -13 29 2 53 20 30 43 33 69 9z"/>
<path d="M6995 5415 c-56 -55 -16 -145 63 -145 58 0 89 38 84 106 -5 62 -99
88 -147 39z m93 -17 c7 -7 12 -26 12 -43 0 -51 -41 -73 -74 -39 -21 20 -20 53
1 76 19 21 44 23 61 6z"/>
<path d="M7186 5419 c-21 -16 -26 -29 -26 -64 0 -57 35 -88 92 -83 40 4 46 0
26 -20 -15 -15 -43 -15 -68 0 -15 10 -22 10 -32 0 -33 -33 85 -58 127 -27 22
17 37 118 23 156 -5 13 -4 27 2 33 20 20 9 26 -54 26 -49 0 -69 -5 -90 -21z
m88 -25 c19 -18 21 -65 4 -82 -7 -7 -21 -12 -33 -12 -44 0 -61 56 -28 92 20
22 37 23 57 2z"/>
<path d="M7350 5355 c0 -78 2 -85 20 -85 18 0 20 7 20 85 0 78 -2 85 -20 85
-18 0 -20 -7 -20 -85z"/>
<path d="M7436 5419 c-21 -16 -26 -29 -26 -64 0 -63 30 -84 116 -84 l64 1 0
83 0 83 -64 1 c-50 0 -70 -4 -90 -20z m88 -25 c19 -18 21 -65 4 -82 -7 -7 -21
-12 -33 -12 -29 0 -45 19 -45 51 0 29 23 59 45 59 7 0 21 -7 29 -16z"/>
<path d="M4685 5107 c17 -8 32 -13 34 -11 7 7 -3 12 -34 19 l-30 6 30 -14z"/>
<path d="M4755 5080 c3 -5 14 -10 23 -10 15 0 15 2 2 10 -20 13 -33 13 -25 0z"/>
<path d="M1295 1493 c-305 -24 -468 -45 -709 -93 -161 -32 -421 -97 -524 -131
l-62 -21 0 -624 0 -624 3265 0 3265 0 0 40 c0 29 4 40 15 40 13 0 15 33 15
240 l0 240 40 0 40 0 0 200 0 200 40 0 40 0 0 49 c0 40 -3 50 -20 54 -20 5
-29 -8 -9 -15 6 -2 -11 -5 -37 -6 -55 -2 -52 5 14 28 34 12 48 22 50 38 4 28
-9 28 -26 1 -9 -14 -19 -18 -32 -14 -11 4 -25 3 -32 -2 -7 -4 -17 -8 -23 -9
-5 -1 -14 -3 -20 -4 -18 -4 -58 0 -53 5 3 3 20 7 37 10 18 2 38 9 46 15 19 16
114 38 139 33 17 -4 19 -3 6 7 -12 9 -10 10 13 5 19 -4 26 -2 22 5 -4 6 6 10
24 10 17 0 31 4 31 9 0 5 -26 3 -58 -4 -99 -23 -216 -55 -237 -64 -11 -5 -50
-19 -87 -32 -37 -12 -65 -26 -62 -31 3 -4 -2 -5 -10 -2 -8 3 -34 -3 -58 -14
-23 -10 -74 -32 -113 -48 -38 -16 -127 -59 -197 -97 -160 -85 -276 -127 -453
-163 -137 -28 -147 -29 -455 -29 -267 1 -341 4 -485 23 -93 12 -192 27 -220
32 -27 6 -122 24 -210 41 -164 32 -484 110 -635 156 -261 78 -369 118 -458
171 -361 210 -787 335 -1272 372 -123 9 -447 11 -545 3z m5218 -427 c6 -15 -1
-26 -15 -26 -5 0 -6 5 -2 11 5 9 -4 10 -32 5 l-39 -6 30 14 c39 19 52 19 58 2z
m-143 -46 c0 -5 -5 -10 -11 -10 -5 0 -7 5 -4 10 3 6 8 10 11 10 2 0 4 -4 4
-10z m25 -29 c-3 -6 -14 -11 -23 -11 -13 0 -13 2 4 14 21 15 30 14 19 -3z
m162 -253 c-2 -13 -4 -3 -4 22 0 25 2 35 4 23 2 -13 2 -33 0 -45z m-80 -560
c-2 -13 -4 -3 -4 22 0 25 2 35 4 23 2 -13 2 -33 0 -45z"/>
<path d="M7238 1253 c6 -2 18 -2 25 0 6 3 1 5 -13 5 -14 0 -19 -2 -12 -5z"/>
<path d="M7118 1243 c7 -3 16 -2 19 1 4 3 -2 6 -13 5 -11 0 -14 -3 -6 -6z"/>
<path d="M6980 1210 c0 -5 4 -10 9 -10 6 0 13 5 16 10 3 6 -1 10 -9 10 -9 0
-16 -4 -16 -10z"/>
<path d="M6923 1203 c9 -2 23 -2 30 0 6 3 -1 5 -18 5 -16 0 -22 -2 -12 -5z"/>
<path d="M6825 1150 c17 -7 14 -9 -13 -9 -18 -1 -31 -5 -28 -9 6 -10 76 -3 76
8 0 9 -26 20 -43 19 -7 0 -3 -4 8 -9z"/>
</g>
</svg>
